HIERARCHY
ROOT ui
{
	 OFFSET 0 0 0
	 CHANNELS 3 XPosition YPosition Z Position
	 EndSite
	 {
	 OFFSET 0 -1 0
	 }
}
ROOT li
{
	 OFFSET 0 0 0
	 CHANNELS 3 XPosition YPosition Z Position
	 EndSite
	 {
	 OFFSET 0 -1 0
	 }
}
ROOT ul
{
	 OFFSET 0 0 0
	 CHANNELS 3 XPosition YPosition Z Position
	 EndSite
	 {
	 OFFSET 0 -1 0
	 }
}
ROOT ll
{
	 OFFSET 0 0 0
	 CHANNELS 3 XPosition YPosition Z Position
	 EndSite
	 {
	 OFFSET 0 -1 0
	 }
}
ROOT tt
{
	 OFFSET 0 0 0
	 CHANNELS 3 XPosition YPosition Z Position
	 EndSite
	 {
	 OFFSET 0 -1 0
	 }
}
ROOT tb
{
	 OFFSET 0 0 0
	 CHANNELS 3 XPosition YPosition Z Position
	 EndSite
	 {
	 OFFSET 0 -1 0
	 }
}
ROOT td
{
	 OFFSET 0 0 0
	 CHANNELS 3 XPosition YPosition Z Position
	 EndSite
	 {
	 OFFSET 0 -1 0
	 }
}
ROOT v
{
	 OFFSET 0 0 0
	 CHANNELS 3 XPosition YPosition Z Position
	 EndSite
	 {
	 OFFSET 0 -1 0
	 }
}
ROOT bn
{
	 OFFSET 0 0 0
	 CHANNELS 3 XPosition YPosition Z Position
	 EndSite
	 {
	 OFFSET 0 -1 0
	 }
}
MOTION
Frames: 10
Frame Time: 0.002
8.745830059051513E-4	5.798749923706055E-4	0		0.37304876708984375	-2.302225341796875	0		-1.128805908203125	-0.16322161865234375	0		-1.03960595703125	-2.361214599609375	0		1.5379398193359375	-0.4036878967285156	0		3.25689501953125	0.08728400421142578	0		4.2248408203125	0.23116836547851563	0		5.6137890625	0.0649022216796875	0		-0.29571807861328125	5.88981201171875	0		
-0.0020330588817596435	-0.002306509017944336	0		0.37108419799804687	-2.305130859375	0		-1.12868798828125	-0.16311007690429688	0		-1.0884403076171876	-2.350618408203125	0		1.5380518798828124	-0.40364224243164065	0		3.25009912109375	0.09535643005371094	0		4.218892578125	0.22321636962890626	0		5.60984326171875	0.05788733673095703	0		-0.2944605712890625	5.88889306640625	0		
-0.006864037036895752	0.002828044891357422	0		0.3971167907714844	-2.309312255859375	0		-1.132601806640625	-0.16596296691894533	0		-1.0164607543945312	-2.360229248046875	0		1.5551123046875	-0.4087566528320313	0		3.250219970703125	0.09537755584716796	0		4.21901953125	0.223225341796875	0		5.60996337890625	0.05786212158203125	0		-0.3103148193359375	5.8801435546875	0		
-0.00887148380279541	-0.009066853523254394	0		0.36819573974609376	-2.3089443359375	0		-1.206478515625	-0.16412309265136718	0		-1.092330322265625	-2.354371337890625	0		1.535229248046875	-0.4074960021972656	0		3.228274658203125	0.08963306427001953	0		4.2140576171875	0.21530203247070312	0		5.610076171875	0.057862377166748045	0		-0.344172607421875	5.874572265625	0		
0.001330651044845581	9.154180288314819E-4	0		0.37131356811523436	-2.304895751953125	0		-1.11243212890625	-0.1699663848876953	0		-1.0882130126953125	-2.350317138671875	0		1.5383675537109376	-0.4034600830078125	0		3.240218017578125	0.0735618896484375	0		4.2261435546875	0.21322332763671875	0		5.60525	0.0649343032836914	0		-0.2928693542480469	5.8881484375	0		
0.005462561130523682	0.004955152034759522	0		0.3754400634765625	-2.299858642578125	0		-1.18228759765625	-0.1641794738769531	0		-1.071157470703125	-2.35239990234375	0		1.544526611328125	-0.39645077514648436	0		3.255599853515625	0.10246872711181641	0		4.23131787109375	0.22122689819335936	0		5.61841162109375	0.07184639739990234	0		-0.3268060913085937	5.8815703125	0		
0.0015029749870300293	0.0010719419717788697	0		0.3974227600097656	-2.309002685546875	0		-1.1251607666015624	-0.15966981506347655	0		-1.05211474609375	-2.355510009765625	0		1.5385360107421875	-0.403318115234375	0		3.2285517578125	0.08980691528320313	0		4.2374189453125	0.22323263549804687	0		5.61442236328125	0.06494771575927734	0		-0.2595828857421875	5.8939775390625	0		
-0.0014603229761123656	-0.0018257230520248413	0		0.36849298095703126	-2.30864013671875	0		-1.1281239013671875	-0.16256855773925782	0		-1.0520460205078126	-2.35543896484375	0		1.5555521240234376	-0.4084141845703125	0		3.242557373046875	0.08374252319335937	0		4.249404296875	0.21518896484375	0		5.6104189453125	0.058065650939941406	0		-0.30965948486328126	5.8805498046875	0		
-0.0014095419645309447	-0.0017593400478363038	0		0.39552261352539064	-2.311841796875	0		-1.1161729736328125	-0.1726265869140625	0		-1.0919727783203126	-2.353977294921875	0		1.515626708984375	-0.40594125366210937	0		3.24260791015625	0.0838232421875	0		4.2314541015625	0.21545248413085938	0		5.6104697265625	0.05815683746337891	0		-0.30865475463867187	5.87860498046875	0		
-0.0013765859603881835	-0.0016999759674072266	0		0.37954379272460936	-2.314619384765625	0		-1.18609521484375	-0.16787673950195312	0		-1.0690531005859376	-2.3671552734375	0		1.5386915283203124	-0.40310031127929685	0		3.235720458984375	0.09197652435302735	0		4.2434638671875	0.21342132568359376	0		5.605572265625	0.06530801391601562	0		-0.3276251525878906	5.8828515625	0		
